<?xml version="1.0" encoding="UTF-8" standalone="no"?>
<!-- Created with Inkscape (http://www.inkscape.org/) -->

<svg
   xmlns:dc="http://purl.org/dc/elements/1.1/"
   xmlns:cc="http://creativecommons.org/ns#"
   xmlns:rdf="http://www.w3.org/1999/02/22-rdf-syntax-ns#"
   xmlns:svg="http://www.w3.org/2000/svg"
   xmlns="http://www.w3.org/2000/svg"
   xmlns:sodipodi="http://sodipodi.sourceforge.net/DTD/sodipodi-0.dtd"
   xmlns:inkscape="http://www.inkscape.org/namespaces/inkscape"
   id="svg3357"
   version="1.1"
   inkscape:version="0.91 r13725"
   xml:space="preserve"
   sodipodi:docname="commute.svg"><metadata
     id="metadata26"><rdf:RDF><cc:Work
         rdf:about=""><dc:format>image/svg+xml</dc:format><dc:type
           rdf:resource="http://purl.org/dc/dcmitype/StillImage" /><dc:title></dc:title></cc:Work></rdf:RDF></metadata><defs
     id="defs24" /><sodipodi:namedview
     pagecolor="#ffffff"
     bordercolor="#666666"
     borderopacity="1"
     objecttolerance="10"
     gridtolerance="10"
     guidetolerance="10"
     inkscape:pageopacity="0"
     inkscape:pageshadow="2"
     inkscape:window-width="862"
     inkscape:window-height="801"
     id="namedview22"
     showgrid="false"
     inkscape:zoom="0.57407407"
     inkscape:cx="123.87953"
     inkscape:cy="95.511993"
     inkscape:window-x="0"
     inkscape:window-y="0"
     inkscape:window-maximized="0"
     inkscape:current-layer="svg3357"
     fit-margin-top="0"
     fit-margin-left="0"
     fit-margin-right="0"
     fit-margin-bottom="0" /><g
     id="g3365"
     transform="matrix(5.2215601,0,0,-5.2215603,-160.12958,974.31234)"><g
       id="g3463"
       transform="translate(70.4543,174.2711)"><path
         d="M 0,0 C 1.03,-0.016 1.942,0.88 1.952,1.917 1.962,2.957 1.092,3.858 0.049,3.888 -0.992,3.917 -1.935,2.99 -1.934,1.939 -1.933,0.904 -1.047,0.016 0,0 m -8.639,-3.264 -3.455,0 0,-3.424 3.455,0 0,3.424 z m 5.173,0.004 -3.42,0 0,-3.451 3.42,0 0,3.451 z m 5.208,-0.004 -3.453,0 0,-3.423 3.453,0 0,3.423 z m 1.737,-3.43 3.445,0 0,3.438 -3.445,0 0,-3.438 z m 5.195,0.004 3.438,0 0,3.438 -3.438,0 0,-3.438 z m -17.317,-3.493 -3.438,0 0,-3.438 3.438,0 0,3.438 z m 5.191,0 -3.438,0 0,-3.439 3.438,0 0,3.439 z m 10.383,-0.003 -3.448,0 0,-3.423 3.448,0 0,3.423 z m 5.186,-0.004 -3.442,0 0,-3.432 3.442,0 0,3.432 z m 3.467,-5.173 c -0.404,-1.339 -1.351,-1.742 -2.683,-1.725 -3.512,0.047 -7.026,0.016 -10.539,0.017 l -0.577,0 0,6.876 -3.511,0 0,-6.846 c -0.219,-0.012 -0.392,-0.03 -0.565,-0.03 -3.603,-10e-4 -7.206,-0.002 -10.809,0 -1.693,0 -2.439,0.747 -2.439,2.432 -10e-4,4.071 -0.002,8.143 -0.002,12.214 0,1.944 0.678,2.615 2.64,2.614 1.402,0 2.804,0 4.284,0 0,0.395 0.006,0.749 -0.002,1.102 -0.018,0.774 0.302,1.332 0.985,1.723 2.125,1.214 4.233,2.459 6.359,3.67 0.345,0.197 0.464,0.417 0.454,0.808 -0.029,1.063 0.026,2.128 -0.022,3.188 -0.034,0.744 0.191,1.292 0.854,1.643 l 4.65,0 c 0.43,-0.291 0.563,-0.699 0.525,-1.205 -0.033,-0.43 0,-0.864 -0.007,-1.296 C 5.17,9.187 4.885,8.894 4.259,8.886 3.575,8.877 2.89,8.884 2.206,8.884 c -0.441,0 -0.883,0 -1.351,0 C 0.855,8.349 0.882,7.898 0.846,7.452 0.816,7.074 0.964,6.874 1.284,6.691 3.423,5.468 5.55,4.222 7.686,2.993 8.343,2.614 8.658,2.062 8.641,1.308 8.633,0.953 8.639,0.598 8.639,0.189 c 1.467,0 2.868,-0.046 4.266,0.013 1.335,0.058 2.278,-0.381 2.679,-1.722 l 0,-13.843 z"
         style="fill:#49ade1;fill-opacity:1;fill-rule:nonzero;stroke:none"
         id="path3465"
         inkscape:connector-curvature="0" /></g><g
       id="g3467"
       transform="translate(37.509,152.8361)"><path
         d="M 0,0 C 0.062,0.044 0.124,0.089 0.186,0.133 0.639,2.628 1.092,5.122 1.544,7.617 1.487,7.651 1.43,7.685 1.372,7.72 0.763,7.122 0.15,6.528 -0.451,5.922 -0.532,5.84 -0.572,5.703 -0.596,5.585 -0.853,4.281 -1.107,2.977 -1.35,1.671 -1.377,1.524 -1.386,1.305 -1.302,1.219 -0.887,0.794 -0.437,0.403 0,0 m -6.842,0.773 c 1.379,2.764 2.757,5.53 4.14,8.293 0.426,0.85 1.314,1.185 2.188,0.819 C -0.081,9.704 0.102,9.354 0.03,8.883 -0.005,8.658 -0.043,8.435 -0.096,8.102 c 0.22,0.16 0.351,0.245 0.47,0.343 1.382,1.137 2.923,1.659 4.72,1.259 C 5.549,9.603 6.019,9.561 6.485,9.528 7.523,9.454 8.273,8.947 8.807,8.071 c 0.646,-1.06 1.288,-2.124 1.973,-3.16 0.207,-0.314 0.512,-0.6 0.836,-0.793 1.02,-0.607 2.075,-1.156 3.107,-1.744 0.653,-0.372 0.995,-1.063 0.889,-1.713 -0.124,-0.763 -0.636,-1.343 -1.408,-1.436 -0.368,-0.044 -0.807,0.031 -1.135,0.203 C 11.698,0.144 10.346,0.901 9.012,1.684 8.719,1.856 8.497,2.176 8.294,2.465 7.988,2.902 7.729,3.371 7.357,3.976 7.202,2.956 7.07,2.1 6.94,1.244 6.738,-0.089 6.548,-1.425 6.33,-2.756 6.271,-3.117 6.362,-3.353 6.643,-3.591 7.687,-4.477 8.702,-5.396 9.74,-6.289 c 0.459,-0.395 0.71,-0.875 0.822,-1.47 0.504,-2.668 1.031,-5.331 1.549,-7.995 0.214,-1.104 -0.448,-2.097 -1.556,-2.337 -0.978,-0.212 -2.024,0.436 -2.24,1.473 -0.492,2.358 -0.925,4.729 -1.418,7.087 -0.066,0.317 -0.274,0.67 -0.525,0.873 -1.693,1.371 -3.405,2.72 -5.134,4.047 -0.979,0.751 -1.503,1.683 -1.353,2.931 0.041,0.341 -0.076,0.508 -0.383,0.657 -0.411,0.201 -0.783,0.483 -1.229,0.767 -0.1,-0.512 -0.186,-0.965 -0.276,-1.417 -0.139,-0.699 -0.539,-0.959 -1.244,-0.804 -0.492,0.107 -0.981,0.225 -1.474,0.329 -1.051,0.221 -1.719,0.846 -2.012,1.879 -0.018,0.064 -0.072,0.118 -0.109,0.177 0,0.288 0,0.576 0,0.865"
         style="fill:#49ade1;fill-opacity:1;fill-rule:nonzero;stroke:none"
         id="path3469"
         inkscape:connector-curvature="0" /></g><g
       id="g3471"
       transform="translate(37.0867,147.2629)"><path
         d="M 0,0 C 1.25,-0.983 2.412,-1.917 3.599,-2.817 3.908,-3.051 4.001,-3.303 3.912,-3.645 3.849,-3.886 3.781,-4.134 3.666,-4.354 c -1.244,-2.372 -2.491,-4.741 -3.75,-7.105 -0.416,-0.781 -1.238,-1.206 -2.005,-1.082 -0.859,0.137 -1.561,0.744 -1.651,1.616 -0.048,0.467 0.072,1.011 0.285,1.436 1.011,2.025 2.094,4.014 3.114,6.035 0.2,0.397 0.292,0.874 0.327,1.323 C 0.04,-1.454 0,-0.77 0,0"
         style="fill:#49ade1;fill-opacity:1;fill-rule:nonzero;stroke:none"
         id="path3473"
         inkscape:connector-curvature="0" /></g><g
       id="g3475"
       transform="translate(48.0086,167.5817)"><path
         d="m 0,0 c -0.093,-0.407 -0.147,-0.764 -0.258,-1.103 -0.478,-1.457 -1.902,-2.436 -3.391,-2.351 -1.585,0.09 -2.901,1.217 -3.2,2.741 -0.308,1.563 0.447,3.103 1.852,3.781 1.408,0.678 3.073,0.358 4.061,-0.869 C -0.597,1.778 -0.258,1.654 0.243,1.678 0.962,1.713 1.684,1.694 2.405,1.684 3,1.676 3.398,1.329 3.398,0.842 3.398,0.357 2.993,0.007 2.403,0.002 1.596,-0.005 0.788,0 0,0"
         style="fill:#49ade1;fill-opacity:1;fill-rule:nonzero;stroke:none"
         id="path3477"
         inkscape:connector-curvature="0" /></g><g
       id="g3479"
       transform="translate(53.2168,135.9711)"><path
         d="M 0,0 C 0.019,1.131 0.147,1.25 1.273,1.292 1.864,1.314 2.454,1.376 3.044,1.421 3.487,1.454 3.775,1.262 3.859,0.821 4.145,-0.691 4.317,-1.042 2.461,-1.16 2.085,-1.184 1.71,-1.222 1.334,-1.248 0.222,-1.326 -0.018,-1.1 0,0"
         style="fill:#49ade1;fill-opacity:1;fill-rule:nonzero;stroke:none"
         id="path3481"
         inkscape:connector-curvature="0" /></g><g
       id="g3483"
       transform="translate(70.9863,148.1005)"><path
         d="m 0,0 c -0.287,-0.905 -0.573,-1.809 -0.863,-2.713 -0.015,-0.05 -0.049,-0.098 -0.086,-0.135 -0.651,-0.651 -1.196,-0.002 -1.765,0.169 -0.444,0.134 -0.584,0.508 -0.458,0.955 0.204,0.724 0.413,1.448 0.634,2.167 0.143,0.464 0.457,0.668 0.949,0.564 C -1.291,0.943 -0.99,0.892 -0.692,0.829 -0.255,0.738 -0.051,0.464 0,0"
         style="fill:#49ade1;fill-opacity:1;fill-rule:nonzero;stroke:none"
         id="path3485"
         inkscape:connector-curvature="0" /></g><g
       id="g3487"
       transform="translate(63.6764,137.5646)"><path
         d="m 0,0 c -0.216,-0.243 -0.357,-0.521 -0.581,-0.632 -0.768,-0.382 -1.555,-0.73 -2.355,-1.042 -0.518,-0.201 -0.857,0.004 -1.042,0.527 -0.006,0.017 -0.009,0.035 -0.015,0.052 -0.489,1.554 -0.386,1.563 0.921,2.068 0.416,0.162 0.814,0.373 1.219,0.563 C -1.339,1.778 -1.014,1.7 -0.708,1.221 -0.472,0.85 -0.265,0.459 0,0"
         style="fill:#49ade1;fill-opacity:1;fill-rule:nonzero;stroke:none"
         id="path3489"
         inkscape:connector-curvature="0" /></g><g
       id="g3491"
       transform="translate(65.9903,139.2359)"><path
         d="M 0,0 C -0.229,0.165 -0.438,0.269 -0.586,0.429 -1.407,1.323 -1.875,1.468 -0.672,2.708 -0.361,3.029 -0.115,3.415 0.149,3.78 0.426,4.162 0.782,4.265 1.184,4.035 2.356,3.364 2.997,3.227 1.781,1.726 1.429,1.292 1.078,0.856 0.693,0.453 0.52,0.271 0.265,0.169 0,0"
         style="fill:#49ade1;fill-opacity:1;fill-rule:nonzero;stroke:none"
         id="path3493"
         inkscape:connector-curvature="0" /></g><g
       id="g3495"
       transform="translate(69.1256,153.4488)"><path
         d="M 0,0 C 0.016,0.358 0.032,0.717 0.049,1.075 0.054,1.182 0.035,1.299 0.069,1.396 0.381,2.269 1.136,1.915 1.73,1.968 2.182,2.008 2.528,1.772 2.525,1.293 2.519,0.38 2.47,-0.534 2.4,-1.445 2.37,-1.839 2.069,-2.018 1.688,-2.048 1.636,-2.052 1.582,-2.035 1.528,-2.03 -0.144,-1.884 -0.167,-1.853 0,0"
         style="fill:#49ade1;fill-opacity:1;fill-rule:nonzero;stroke:none"
         id="path3497"
         inkscape:connector-curvature="0" /></g></g></svg>