<?xml version="1.0" encoding="UTF-8" standalone="no"?>
<!-- Created with Inkscape (http://www.inkscape.org/) -->

<svg
   xmlns:dc="http://purl.org/dc/elements/1.1/"
   xmlns:cc="http://creativecommons.org/ns#"
   xmlns:rdf="http://www.w3.org/1999/02/22-rdf-syntax-ns#"
   xmlns:svg="http://www.w3.org/2000/svg"
   xmlns="http://www.w3.org/2000/svg"
   xmlns:sodipodi="http://sodipodi.sourceforge.net/DTD/sodipodi-0.dtd"
   xmlns:inkscape="http://www.inkscape.org/namespaces/inkscape"
   id="svg3357"
   version="1.1"
   inkscape:version="0.91 r13725"
   xml:space="preserve"
   width="289.125"
   height="189.12511"
   viewBox="0 0 289.125 189.12511"
   sodipodi:docname="lg-events.svg"><metadata
     id="metadata22"><rdf:RDF><cc:Work
         rdf:about=""><dc:format>image/svg+xml</dc:format><dc:type
           rdf:resource="http://purl.org/dc/dcmitype/StillImage" /><dc:title></dc:title></cc:Work></rdf:RDF></metadata><defs
     id="defs20" /><sodipodi:namedview
     pagecolor="#ffffff"
     bordercolor="#666666"
     borderopacity="1"
     objecttolerance="10"
     gridtolerance="10"
     guidetolerance="10"
     inkscape:pageopacity="0"
     inkscape:pageshadow="2"
     inkscape:window-width="1191"
     inkscape:window-height="727"
     id="namedview18"
     showgrid="false"
     inkscape:zoom="0.81186334"
     inkscape:cx="-48.04955"
     inkscape:cy="39.673586"
     inkscape:window-x="0"
     inkscape:window-y="0"
     inkscape:window-maximized="0"
     inkscape:current-layer="svg3357"
     fit-margin-top="0"
     fit-margin-left="0"
     fit-margin-right="0"
     fit-margin-bottom="0" /><g
     id="g3365"
     transform="matrix(3.9446756,0,0,-3.9446756,-1035.5302,732.08209)"><!-- begin events --><g
       id="g3427"
       transform="translate(304.2922,166.5542)"><path
         d="m 0,0 0,4.87 11.956,10.884 c 0.701,0.638 0.752,1.723 0.114,2.424 -0.638,0.702 -1.724,0.753 -2.425,0.114 L -2.188,7.52 l -6.81,0 -11.833,10.772 c -0.701,0.639 -1.786,0.588 -2.425,-0.114 -0.638,-0.701 -0.587,-1.786 0.114,-2.424 l 11.957,-10.884 0,-5.01 c 1.966,-0.643 3.729,-0.944 5.437,-0.945 C -3.847,-1.084 -2,-0.714 0,0"
         style="fill:#49ade1;fill-opacity:1;fill-rule:nonzero;stroke:none"
         id="path3429"
         inkscape:connector-curvature="0" /></g><g
       id="g3431"
       transform="translate(301.7032,178.4994)"><path
         d="M 0,0 C -1.537,-3.061 -5.09,-1.788 -5.736,-0.046 -3.366,-1.149 0,0 0,0 m -3.004,-3.167 c 2.833,0 5.128,2.296 5.128,5.128 0,2.832 -2.295,5.127 -5.128,5.127 -2.831,0 -5.127,-2.295 -5.127,-5.127 0,-2.832 2.296,-5.128 5.127,-5.128"
         style="fill:#49ade1;fill-opacity:1;fill-rule:nonzero;stroke:none"
         id="path3433"
         inkscape:connector-curvature="0" /></g><g
       id="g3435"
       transform="translate(323.2919,158.907)"><path
         d="m 0,0 c -0.6,-1.111 -1.775,-1.867 -3.123,-1.867 -1.349,0 -2.523,0.757 -3.124,1.867 -0.429,-0.165 -1.019,-0.506 -1.565,-1.197 -0.916,-1.152 -1.681,-3.14 -1.759,-6.664 -0.013,-0.573 0.442,-1.049 1.016,-1.061 l 0.022,0 c 0.564,0 1.026,0.45 1.038,1.016 0.058,2.623 0.531,4.112 0.987,4.93 l 0,-11.684 c 0,-0.85 0.69,-1.54 1.54,-1.54 0.85,0 1.54,0.69 1.54,1.54 l 0,2.862 0.61,0 0,-7.927 c 0,-0.85 0.69,-1.539 1.54,-1.539 0.85,0 1.539,0.689 1.539,1.539 l 0,16.749 c 0.455,-0.816 0.931,-2.308 0.987,-4.93 0.012,-0.566 0.474,-1.016 1.038,-1.016 l 0.023,0 c 0.574,0.013 1.029,0.488 1.016,1.062 -0.078,3.523 -0.844,5.51 -1.76,6.663 C 1.019,-0.506 0.43,-0.165 0,0"
         style="fill:#49ade1;fill-opacity:1;fill-rule:nonzero;stroke:none"
         id="path3437"
         inkscape:connector-curvature="0" /></g><g
       id="g3439"
       transform="translate(320.1687,157.4856)"><path
         d="M 0,0 C 1.714,0 3.103,1.389 3.103,3.103 3.103,4.817 1.714,6.206 0,6.206 -1.714,6.206 -3.103,4.817 -3.103,3.103 -3.103,1.389 -1.714,0 0,0"
         style="fill:#49ade1;fill-opacity:1;fill-rule:nonzero;stroke:none"
         id="path3441"
         inkscape:connector-curvature="0" /></g><g
       id="g3443"
       transform="translate(279.6462,158.907)"><path
         d="m 0,0 c -0.6,-1.111 -1.775,-1.867 -3.123,-1.867 -1.349,0 -2.523,0.757 -3.124,1.867 -0.429,-0.165 -1.019,-0.506 -1.565,-1.197 -0.916,-1.152 -1.681,-3.14 -1.759,-6.664 -0.013,-0.573 0.442,-1.049 1.016,-1.061 l 0.022,0 c 0.564,0 1.026,0.45 1.038,1.016 0.058,2.623 0.531,4.112 0.987,4.93 l 0,-11.684 c 0,-0.85 0.689,-1.54 1.54,-1.54 0.85,0 1.54,0.69 1.54,1.54 l 0,2.862 0.61,0 0,-7.927 c 0,-0.85 0.69,-1.539 1.54,-1.539 0.85,0 1.539,0.689 1.539,1.539 l 0,16.749 c 0.455,-0.816 0.931,-2.308 0.987,-4.93 0.012,-0.566 0.474,-1.016 1.038,-1.016 l 0.023,0 c 0.574,0.013 1.029,0.488 1.016,1.062 -0.078,3.523 -0.844,5.51 -1.76,6.663 C 1.019,-0.506 0.43,-0.165 0,0"
         style="fill:#49ade1;fill-opacity:1;fill-rule:nonzero;stroke:none"
         id="path3445"
         inkscape:connector-curvature="0" /></g><g
       id="g3447"
       transform="translate(276.523,157.4856)"><path
         d="M 0,0 C 1.714,0 3.103,1.389 3.103,3.103 3.103,4.817 1.714,6.206 0,6.206 -1.714,6.206 -3.103,4.817 -3.103,3.103 -3.103,1.389 -1.714,0 0,0"
         style="fill:#49ade1;fill-opacity:1;fill-rule:nonzero;stroke:none"
         id="path3449"
         inkscape:connector-curvature="0" /></g><g
       id="g3451"
       transform="translate(309.5574,168.0584)"><path
         d="m 0,0 c -1.579,-0.836 -3.027,-1.532 -4.396,-2.076 -2.341,-0.927 -4.443,-1.412 -6.617,-1.412 -1.908,0 -3.883,0.373 -6.135,1.182 -1.546,0.557 -3.221,1.32 -5.082,2.306 -2.018,1.066 -4.717,1.588 -7.849,1.591 -4.821,-0.002 -10.68,-1.255 -16.626,-3.879 -0.113,-0.049 -0.226,-0.096 -0.339,-0.147 l 0.504,-1.118 0,0 c 5.916,2.664 11.763,3.919 16.461,3.917 2.995,0.002 5.517,-0.513 7.275,-1.448 1.899,-1.006 3.624,-1.794 5.241,-2.375 0.377,-0.136 0.747,-0.256 1.112,-0.369 l 0,-14.614 c 0,-1.404 1.14,-2.544 2.545,-2.544 1.405,0 2.544,1.14 2.544,2.544 l 0,4.729 1.008,0 0,-13.097 c 0,-1.405 1.14,-2.544 2.545,-2.544 1.405,0 2.544,1.139 2.544,2.544 l 0,23.113 c 0.436,0.148 0.875,0.305 1.321,0.482 1.428,0.566 2.913,1.282 4.517,2.131 1.948,1.035 4.508,1.448 7.254,1.446 4.118,0.001 8.631,-0.917 12.1,-1.841 1.735,-0.462 3.211,-0.923 4.251,-1.27 1.04,-0.345 1.635,-0.573 1.637,-0.573 l 0.436,1.146 c -0.003,0.001 -0.108,0.041 -0.3,0.11 C 24.244,-1.448 15.541,1.581 7.827,1.588 4.963,1.586 2.221,1.173 0,0"
         style="fill:#49ade1;fill-opacity:1;fill-rule:nonzero;stroke:none"
         id="path3453"
         inkscape:connector-curvature="0" /></g><!-- end --></g></svg>