<?xml version="1.0" encoding="UTF-8" standalone="no"?>
<!-- Created with Inkscape (http://www.inkscape.org/) -->

<svg
   xmlns:dc="http://purl.org/dc/elements/1.1/"
   xmlns:cc="http://creativecommons.org/ns#"
   xmlns:rdf="http://www.w3.org/1999/02/22-rdf-syntax-ns#"
   xmlns:svg="http://www.w3.org/2000/svg"
   xmlns="http://www.w3.org/2000/svg"
   xmlns:sodipodi="http://sodipodi.sourceforge.net/DTD/sodipodi-0.dtd"
   xmlns:inkscape="http://www.inkscape.org/namespaces/inkscape"
   id="svg3357"
   version="1.1"
   inkscape:version="0.91 r13725"
   xml:space="preserve"
   width="289.125"
   height="367.39813"
   viewBox="0 0 289.125 367.39813"
   sodipodi:docname="physed.svg"><metadata
     id="metadata12"><rdf:RDF><cc:Work
         rdf:about=""><dc:format>image/svg+xml</dc:format><dc:type
           rdf:resource="http://purl.org/dc/dcmitype/StillImage" /><dc:title></dc:title></cc:Work></rdf:RDF></metadata><defs
     id="defs10" /><sodipodi:namedview
     pagecolor="#ffffff"
     bordercolor="#666666"
     borderopacity="1"
     objecttolerance="10"
     gridtolerance="10"
     guidetolerance="10"
     inkscape:pageopacity="0"
     inkscape:pageshadow="2"
     inkscape:window-width="718"
     inkscape:window-height="480"
     id="namedview8"
     showgrid="false"
     fit-margin-top="0"
     fit-margin-left="0"
     fit-margin-right="0"
     fit-margin-bottom="0"
     inkscape:zoom="0.57407407"
     inkscape:cx="241.76044"
     inkscape:cy="161.6545"
     inkscape:window-x="0"
     inkscape:window-y="0"
     inkscape:window-maximized="0"
     inkscape:current-layer="svg3357" /><g
     id="g3365"
     transform="matrix(7.0633048,0,0,-7.0633048,-831.88038,1325.3811)"><g
       id="g3455"
       transform="translate(138.2703,160.8468)"><path
         d="M 0,0 C 0.033,0.026 0.055,0.041 0.074,0.06 1.031,1.038 1.992,2.013 2.943,2.997 3.318,3.384 3.597,3.833 3.716,4.368 3.931,5.329 3.492,6.263 2.623,6.695 1.787,7.111 0.874,6.899 0.218,6.136 0.144,6.05 0.074,5.963 0.001,5.873 -0.093,5.989 -0.169,6.094 -0.257,6.189 -0.834,6.816 -1.535,7.077 -2.359,6.796 -3.187,6.512 -3.665,5.905 -3.752,5.028 -3.826,4.297 -3.535,3.676 -3.062,3.146 -2.659,2.694 -2.215,2.279 -1.792,1.846 -1.198,1.236 -0.607,0.625 0,0 m 12.48,17.826 c -0.142,0.018 -0.277,0.028 -0.41,0.054 -0.89,0.171 -1.513,0.861 -1.651,1.823 -0.114,0.794 0.363,1.655 1.136,2.05 0.756,0.387 1.739,0.24 2.351,-0.356 0.571,-0.555 0.961,-1.235 1.294,-1.947 0.98,-2.092 1.568,-4.291 1.742,-6.596 0.073,-0.953 0.036,-1.901 -0.148,-2.846 C 16.503,8.513 15.643,7.504 14.268,6.895 13.272,6.454 12.221,6.202 11.166,5.955 10.159,5.72 9.154,5.47 8.152,5.214 7.54,5.057 7.217,4.572 7.258,3.879 7.313,2.963 7.363,2.045 7.454,1.131 7.649,-0.843 8.012,-2.79 8.477,-4.718 c 0.665,-2.759 1.565,-5.44 2.7,-8.043 1.351,-3.095 3.014,-6.011 5.007,-8.738 0.07,-0.096 0.192,-0.173 0.305,-0.215 1.028,-0.381 2.061,-0.748 3.089,-1.128 0.573,-0.211 0.864,-0.63 0.86,-1.185 -0.004,-0.549 -0.434,-1.195 -1.194,-1.188 -2.051,0.018 -4.103,0.011 -6.154,0.003 -0.65,-0.002 -1.127,0.229 -1.513,0.784 -0.663,0.956 -1.396,1.864 -2.1,2.793 -2.675,3.529 -5.35,7.057 -8.026,10.586 -0.172,0.228 -0.337,0.464 -0.528,0.676 -0.506,0.561 -1.414,0.572 -1.897,-0.009 -0.527,-0.634 -1.009,-1.304 -1.507,-1.96 -3.018,-3.979 -6.035,-7.958 -9.052,-11.937 -0.398,-0.773 -1.064,-0.952 -1.88,-0.939 -1.942,0.03 -3.885,0.023 -5.828,0.002 -0.718,-0.008 -1.122,0.465 -1.227,0.973 -0.123,0.592 0.175,1.136 0.771,1.371 0.601,0.237 1.214,0.448 1.821,0.67 0.454,0.165 0.912,0.32 1.361,0.499 0.122,0.049 0.242,0.15 0.32,0.258 1.691,2.318 3.13,4.785 4.342,7.384 1.563,3.351 2.725,6.836 3.524,10.445 0.468,2.116 0.812,4.251 0.99,6.412 0.052,0.637 0.085,1.276 0.102,1.915 C -7.22,5.353 -7.593,5.705 -8.242,5.674 -8.663,5.654 -9.084,5.612 -9.505,5.577 -9.974,5.538 -10.442,5.495 -10.91,5.456 -11.483,5.408 -11.881,5.093 -12.036,4.545 -12.333,3.5 -12.52,2.435 -12.544,1.347 c -0.014,-0.638 -0.003,-1.277 -0.003,-1.922 0.21,-0.034 0.378,-0.05 0.541,-0.09 0.874,-0.213 1.48,-0.935 1.564,-1.854 0.077,-0.841 -0.428,-1.681 -1.226,-2.037 -0.793,-0.354 -1.747,-0.157 -2.349,0.478 -0.615,0.648 -1.026,1.424 -1.381,2.23 -0.832,1.889 -1.354,3.863 -1.55,5.919 -0.108,1.137 -0.082,2.267 0.182,3.389 0.327,1.388 1.176,2.315 2.445,2.901 1.131,0.523 2.332,0.797 3.553,0.976 1.752,0.255 3.505,0.511 5.264,0.697 2.102,0.222 4.217,0.273 6.33,0.215 2.199,-0.06 4.397,-0.18 6.595,-0.278 1.144,-0.051 2.287,-0.113 3.43,-0.165 0.496,-0.023 0.974,0.285 1.118,0.76 0.519,1.715 0.665,3.468 0.511,5.26"
         style="fill:#49ade1;fill-opacity:1;fill-rule:nonzero;stroke:none"
         id="path3457"
         inkscape:connector-curvature="0" /></g><g
       id="g3459"
       transform="translate(138.043,176.6812)"><path
         d="M 0,0 C 1.197,0.007 2.103,0.317 2.898,0.938 3.31,1.259 3.653,1.645 3.931,2.088 4.071,2.311 4.081,2.536 3.93,2.758 3.783,2.974 3.571,3.041 3.323,3 3.101,2.963 2.981,2.799 2.865,2.624 2.064,1.415 0.571,0.886 -0.792,1.331 -1.539,1.574 -2.12,2.038 -2.546,2.696 -2.651,2.858 -2.78,2.98 -2.979,3.005 -3.223,3.035 -3.427,2.96 -3.564,2.753 -3.716,2.523 -3.697,2.288 -3.547,2.064 -2.658,0.732 -1.415,0.04 0,0 m 0.183,-2.053 c -3.63,-0.017 -6.599,3.004 -6.506,6.678 0.086,3.378 2.834,6.336 6.524,6.337 C 3.773,10.964 6.703,8.04 6.7,4.495 6.697,0.851 3.805,-2.054 0.183,-2.053"
         style="fill:#49ade1;fill-opacity:1;fill-rule:nonzero;stroke:none"
         id="path3461"
         inkscape:connector-curvature="0" /></g></g></svg>