<?xml version="1.0" encoding="UTF-8" standalone="no"?>
<!-- Created with Inkscape (http://www.inkscape.org/) -->

<svg
   xmlns:dc="http://purl.org/dc/elements/1.1/"
   xmlns:cc="http://creativecommons.org/ns#"
   xmlns:rdf="http://www.w3.org/1999/02/22-rdf-syntax-ns#"
   xmlns:svg="http://www.w3.org/2000/svg"
   xmlns="http://www.w3.org/2000/svg"
   xmlns:sodipodi="http://sodipodi.sourceforge.net/DTD/sodipodi-0.dtd"
   xmlns:inkscape="http://www.inkscape.org/namespaces/inkscape"
   id="svg3357"
   version="1.1"
   inkscape:version="0.91 r13725"
   xml:space="preserve"
   width="289.12527"
   height="151.73"
   viewBox="0 0 289.12527 151.73"
   sodipodi:docname="other.svg"><metadata
     id="metadata32"><rdf:RDF><cc:Work
         rdf:about=""><dc:format>image/svg+xml</dc:format><dc:type
           rdf:resource="http://purl.org/dc/dcmitype/StillImage" /><dc:title></dc:title></cc:Work></rdf:RDF></metadata><defs
     id="defs30" /><sodipodi:namedview
     pagecolor="#ffffff"
     bordercolor="#666666"
     borderopacity="1"
     objecttolerance="10"
     gridtolerance="10"
     guidetolerance="10"
     inkscape:pageopacity="0"
     inkscape:pageshadow="2"
     inkscape:window-width="718"
     inkscape:window-height="480"
     id="namedview28"
     showgrid="false"
     fit-margin-top="0"
     fit-margin-left="0"
     fit-margin-right="0"
     fit-margin-bottom="0"
     inkscape:zoom="0.57407407"
     inkscape:cx="-61.70279"
     inkscape:cy="50.923802"
     inkscape:window-x="0"
     inkscape:window-y="0"
     inkscape:window-maximized="0"
     inkscape:current-layer="svg3357" /><g
     id="g3365"
     transform="matrix(5.9040906,0,0,-5.9040906,-2104.9689,1043.8581)"><g
       id="g3595"><g
         id="g3597"
         clip-path="url(#clipPath3599)"><g
           id="g3603"
           transform="translate(404.5962,154.5875)"><path
             d="m 0,0 c -2.028,-2.577 -6.885,-2.999 -6.885,-2.999 0,0 0.169,0.338 -0.042,0.338 -0.212,0 -0.718,-0.042 -0.718,-0.042 l -0.169,-0.296 c 0,0 -0.549,-0.634 -3.422,-0.422 l -0.126,0.422 -0.719,-0.085 -0.126,-0.381 c 0,0 -2.83,-0.043 -3.337,0 l 0,0.424 -0.718,0 -0.085,-0.443 c 0,0 -3.421,0.274 -3.506,0.4 -0.084,0.127 0.043,0.423 0.043,0.423 l -0.761,0 -0.084,-0.338 -3.253,0.211 -0.126,0.423 -0.803,0 -0.127,-0.55 -3.252,0.043 -0.042,0.422 -0.592,-0.127 0,-0.295 -2.027,-0.085 -0.127,0.423 -0.634,-0.085 -0.169,-0.422 -1.985,-0.127 -0.084,0.338 -0.592,0 -0.084,-0.38 -2.154,-0.042 -0.127,0.38 -0.465,0 0,-0.38 -2.238,0.042 -0.043,0.338 -0.633,0.042 -0.085,-0.422 c 0,0 -3.506,0.126 -4.815,0.591 l 0,0.422 -0.507,0.211 0,-0.422 c 0,0 -2.196,0.76 -2.45,1.859 l 0,0.338 0.507,3.505 c 0,0 -0.169,1.183 -0.211,1.69 -0.042,0.507 -0.127,7.139 2.154,11.236 0.085,0.152 0.76,1.014 1.985,0.971 1.225,-0.042 1.557,-1.259 2.957,-1.689 0.666,-0.205 4.52,-1.923 6.801,-0.268 3.308,2.4 1.605,4.238 3.083,3.774 1.479,-0.465 4.013,-2.493 4.013,-2.493 0,0 0.845,-0.168 1.098,-0.38 0.254,-0.211 0.761,-0.76 0.803,-0.887 0.042,-0.126 1.309,-0.802 1.309,-0.802 0,0 3.168,-1.352 3.548,-1.817 0.381,-0.464 0.592,-0.549 0.592,-0.549 0,0 3.337,-0.718 3.928,-1.14 0.591,-0.423 0.76,-0.929 0.887,-0.972 0.127,-0.042 0.887,-0.591 1.098,-0.675 0.211,-0.085 3.042,-1.31 3.042,-1.31 0,0 7.729,-0.718 10.475,-3.464 0,0 2.028,-1.9 0,-4.477"
             style="fill:#49ade2;fill-opacity:1;fill-rule:nonzero;stroke:none"
             id="path3605"
             inkscape:connector-curvature="0" /></g><g
           id="g3607"
           transform="translate(376.2375,167.4871)"><path
             d="m 0,0 c 0,0 -0.689,6.172 3.287,9.164 0,0 1.027,0.418 0.829,-0.135 C 3.917,8.477 0.886,5.187 1.23,0.177 1.23,0.177 1.345,-1.065 0,0"
             style="fill:#ffffff;fill-opacity:1;fill-rule:nonzero;stroke:none"
             id="path3609"
             inkscape:connector-curvature="0" /></g><g
           id="g3611"
           transform="translate(373.3376,168.4099)"><path
             d="m 0,0 c 0,0 3.671,5.673 9.262,7.066 0,0 1.197,0.046 0.639,-0.381 C 9.342,6.259 4.38,4.306 1.21,-0.231 1.21,-0.231 0.451,-1.365 0,0"
             style="fill:#ffffff;fill-opacity:1;fill-rule:nonzero;stroke:none"
             id="path3613"
             inkscape:connector-curvature="0" /></g><g
           id="g3615"
           transform="translate(380.1833,166.0287)"><path
             d="m 0,0 c 0,0 -0.689,6.172 3.287,9.164 0,0 1.027,0.418 0.829,-0.135 C 3.917,8.477 0.886,5.187 1.23,0.177 1.23,0.177 1.345,-1.065 0,0"
             style="fill:#ffffff;fill-opacity:1;fill-rule:nonzero;stroke:none"
             id="path3617"
             inkscape:connector-curvature="0" /></g><g
           id="g3619"
           transform="translate(377.2835,166.9515)"><path
             d="m 0,0 c 0,0 3.671,5.673 9.262,7.066 0,0 1.197,0.045 0.639,-0.381 C 9.342,6.259 4.38,4.306 1.21,-0.231 1.21,-0.231 0.451,-1.365 0,0"
             style="fill:#ffffff;fill-opacity:1;fill-rule:nonzero;stroke:none"
             id="path3621"
             inkscape:connector-curvature="0" /></g><g
           id="g3623"
           transform="translate(384.2607,164.5216)"><path
             d="m 0,0 c 0,0 -0.689,6.172 3.287,9.164 0,0 1.027,0.418 0.829,-0.135 C 3.917,8.477 0.886,5.187 1.23,0.177 1.23,0.177 1.345,-1.065 0,0"
             style="fill:#ffffff;fill-opacity:1;fill-rule:nonzero;stroke:none"
             id="path3625"
             inkscape:connector-curvature="0" /></g><g
           id="g3627"
           transform="translate(381.3608,165.4444)"><path
             d="m 0,0 c 0,0 3.671,5.673 9.262,7.066 0,0 1.197,0.045 0.639,-0.381 C 9.342,6.259 4.38,4.306 1.21,-0.231 1.21,-0.231 0.451,-1.365 0,0"
             style="fill:#ffffff;fill-opacity:1;fill-rule:nonzero;stroke:none"
             id="path3629"
             inkscape:connector-curvature="0" /></g><g
           id="g3631"
           transform="translate(388.2065,163.0631)"><path
             d="m 0,0 c 0,0 -0.689,6.172 3.287,9.164 0,0 1.027,0.418 0.829,-0.135 C 3.917,8.477 0.886,5.187 1.23,0.177 1.23,0.177 1.345,-1.065 0,0"
             style="fill:#ffffff;fill-opacity:1;fill-rule:nonzero;stroke:none"
             id="path3633"
             inkscape:connector-curvature="0" /></g><g
           id="g3635"
           transform="translate(385.3067,163.9859)"><path
             d="m 0,0 c 0,0 3.671,5.673 9.262,7.066 0,0 1.197,0.046 0.639,-0.381 C 9.342,6.259 4.38,4.306 1.21,-0.231 1.21,-0.231 0.451,-1.365 0,0"
             style="fill:#ffffff;fill-opacity:1;fill-rule:nonzero;stroke:none"
             id="path3637"
             inkscape:connector-curvature="0" /></g><g
           id="g3639"
           transform="translate(391.6401,161.794)"><path
             d="m 0,0 c 0,0 -0.689,6.172 3.287,9.164 0,0 1.027,0.418 0.829,-0.135 C 3.917,8.477 0.886,5.187 1.23,0.177 1.23,0.177 1.345,-1.065 0,0"
             style="fill:#ffffff;fill-opacity:1;fill-rule:nonzero;stroke:none"
             id="path3641"
             inkscape:connector-curvature="0" /></g><g
           id="g3643"
           transform="translate(388.7402,162.7168)"><path
             d="m 0,0 c 0,0 3.671,5.673 9.262,7.066 0,0 1.197,0.046 0.639,-0.381 C 9.342,6.259 4.38,4.306 1.21,-0.231 1.21,-0.231 0.451,-1.365 0,0"
             style="fill:#ffffff;fill-opacity:1;fill-rule:nonzero;stroke:none"
             id="path3645"
             inkscape:connector-curvature="0" /></g></g></g></g></svg>