<?xml version="1.0" encoding="UTF-8" standalone="no"?>
<!-- Created with Inkscape (http://www.inkscape.org/) -->

<svg
   xmlns:dc="http://purl.org/dc/elements/1.1/"
   xmlns:cc="http://creativecommons.org/ns#"
   xmlns:rdf="http://www.w3.org/1999/02/22-rdf-syntax-ns#"
   xmlns:svg="http://www.w3.org/2000/svg"
   xmlns="http://www.w3.org/2000/svg"
   xmlns:sodipodi="http://sodipodi.sourceforge.net/DTD/sodipodi-0.dtd"
   xmlns:inkscape="http://www.inkscape.org/namespaces/inkscape"
   id="svg3357"
   version="1.1"
   inkscape:version="0.91 r13725"
   xml:space="preserve"
   width="289.12527"
   height="316.54102"
   viewBox="0 0 289.12527 316.54102"
   sodipodi:docname="walkrun.svg"><metadata
     id="metadata10"><rdf:RDF><cc:Work
         rdf:about=""><dc:format>image/svg+xml</dc:format><dc:type
           rdf:resource="http://purl.org/dc/dcmitype/StillImage" /><dc:title></dc:title></cc:Work></rdf:RDF></metadata><defs
     id="defs8" /><sodipodi:namedview
     pagecolor="#ffffff"
     bordercolor="#666666"
     borderopacity="1"
     objecttolerance="10"
     gridtolerance="10"
     guidetolerance="10"
     inkscape:pageopacity="0"
     inkscape:pageshadow="2"
     inkscape:window-width="718"
     inkscape:window-height="480"
     id="namedview6"
     showgrid="false"
     fit-margin-top="0"
     fit-margin-left="0"
     fit-margin-right="0"
     fit-margin-bottom="0"
     inkscape:zoom="0.57407407"
     inkscape:cx="142.83375"
     inkscape:cy="138.15679"
     inkscape:window-x="0"
     inkscape:window-y="0"
     inkscape:window-maximized="0"
     inkscape:current-layer="svg3357" /><g
     id="g3365"
     transform="matrix(6.6580506,0,0,-6.6580506,-1302.7852,1224.1645)"><g
       id="g3499"
       transform="translate(233.6367,179.3418)"><path
         d="M 0,0 C 0.004,2.545 -1.981,4.557 -4.459,4.52 -6.896,4.485 -8.83,2.497 -8.823,0.036 -8.816,-2.52 -6.849,-4.513 -4.367,-4.481 -1.919,-4.449 -0.004,-2.483 0,0 m -23.544,-23.473 c -0.497,-0.7 -1.025,-1.337 -1.431,-2.045 -0.51,-0.89 -1.173,-1.205 -2.22,-1.177 -2.626,0.071 -5.256,0.022 -7.884,-0.02 -1.718,-0.028 -2.895,-1.181 -2.887,-2.745 0.008,-1.585 1.161,-2.707 2.909,-2.724 3.33,-0.032 6.662,-0.099 9.987,0.033 0.954,0.038 2.125,0.471 2.771,1.137 1.078,1.11 1.814,2.554 2.712,3.885 -1.315,1.215 -2.587,2.39 -3.957,3.656 m 15.062,10.092 c 0.585,-1.354 0.987,-2.565 1.617,-3.641 0.413,-0.705 1.082,-1.62 1.764,-1.745 2.794,-0.511 5.633,-0.781 8.462,-1.083 1.077,-0.115 1.703,0.506 1.981,1.53 0.415,1.527 -0.275,2.656 -2.073,2.996 -1.804,0.341 -3.651,0.449 -5.463,0.756 -0.413,0.069 -0.92,0.454 -1.107,0.831 -0.66,1.331 -1.276,2.696 -1.771,4.097 -1.075,3.045 -3.727,4.375 -6.328,5.496 -2.136,0.921 -4.577,1.116 -6.857,1.73 -1.178,0.317 -2.162,0.054 -3.101,-0.592 -2.166,-1.489 -4.331,-2.982 -6.475,-4.502 -1.181,-0.838 -1.526,-2.079 -0.922,-3.055 0.727,-1.175 1.984,-1.5 3.289,-0.698 1.902,1.169 3.733,2.454 5.621,3.646 0.374,0.236 0.897,0.441 1.307,0.377 1.243,-0.192 2.464,-0.524 3.808,-0.826 -0.294,-0.469 -0.513,-0.84 -0.753,-1.196 -1.693,-2.505 -3.397,-5.002 -5.084,-7.511 -1.81,-2.691 -1.539,-4.599 0.945,-6.628 0.473,-0.387 0.997,-0.712 1.51,-1.046 2.259,-1.474 4.523,-2.941 6.777,-4.406 -0.192,-0.454 -0.306,-0.737 -0.431,-1.015 -1.387,-3.073 -2.794,-6.138 -4.157,-9.223 -0.644,-1.455 -0.194,-2.816 1.07,-3.511 1.438,-0.791 2.614,-0.477 3.591,0.999 0.337,0.509 0.636,1.052 0.885,1.61 1.515,3.4 3.041,6.796 4.503,10.219 1.024,2.395 0.67,3.437 -1.499,4.863 -1.967,1.293 -3.944,2.572 -5.956,3.883 1.608,2.535 3.151,4.97 4.847,7.645"
         style="fill:#49ade1;fill-opacity:1;fill-rule:nonzero;stroke:none"
         id="path3501"
         inkscape:connector-curvature="0" /></g></g></svg>